PathFileType	4	(X/Y/Z)	C:/Users/beibeiliu/ov580/test_trc/User3\out8_training_dense_right.trc
DataRate	CameraRate	NumFrames	NumMarkers	Units	OrigDataRate	OrigDataStartFrame	OrigNumFrames
120	120	25	19	mm	120	376	500
Frame#	Time	ThumbCMC			ThumbMCP			ThumbIP			ThumbTip			IndexMCP			IndexPIP			IndexTip			MiddleMCP			MiddlePIP			MiddleTip			RingMCP			RingPIP			RingTip			PinkyMCP			PinkyPIP			PinkyTip			BackHand1			BackHand2			BackHand3	
		X0	Y0	Z0	X1	Y1	Z1	X2	Y2	Z2	X3	Y3	Z3	X4	Y4	Z4	X5	Y5	Z5	X6	Y6	Z6	X7	Y7	Z7	X8	Y8	Z8	X9	Y9	Z9	X10	Y10	Z10	X11	Y11	Z11	X12	Y12	Z12	X13	Y13	Z13	X14	Y14	Z14	X15	Y15	Z15	X16	Y16	Z16	X17	Y17	Z17	X18	Y18	Z18	
375	3.125	117.85	63.3631	37.3796	102.661	59.6436	2.30322	106.592	57.1238	-31.9492	133.079	51.8315	-44.0306	123.73	100.809	-23.58	106.327	76.9468	-39.8251	115.329	57.5298	-10.4327	141.582	95.0744	-35.671	126.308	70.3523	-47.3647	135.266	53.4595	-10.3888	157.105	85.4779	-34.1323	145.721	58.4935	-45.9699	139.838	43.7993	-14.9724	177.828	80.3367	-23.586	175.482	81.3159	-48.2754	169.222	79.615	-71.2765	175.166	86.0881	23.4175	178.736	70.4666	48.5117	145.318	88.4691	43.147	
376	3.13333	117.22	65.6911	33.6943	101.166	57.8426	3.58992	108.41	57.0803	-31.3926	131.407	50.6284	-47.0909	121.539	100.309	-28.4628	107.99	72.9138	-39.7473	112.126	57.1228	-13.87	144.904	94.6106	-36.2489	128.397	69.2539	-47.8758	131.755	52.2824	-10.8653	157.713	85.3626	-36.813	147.753	60.7154	-49.0695	138.917	42.49	-24.4182	179.237	79.8056	-27.6283	181.179	78.2098	-50.219	176.542	78.8487	-73.2629	178.324	81.838	22.9172	180.136	68.0044	50.0528	151.141	90.2967	40.1732	
377	3.14167	117.542	62.2678	35.9275	102.39	58.8856	1.1104	106.045	55.1509	-28.2011	125.145	49.1425	-48.8788	121.655	99.8778	-28.021	110.105	73.1283	-43.2208	115.52	54.1213	-19.8866	142.908	97.7425	-38.1886	131.018	70.142	-53.2984	129.732	48.7273	-22.7454	165.419	85.464	-34.1723	148.896	61.6512	-54.1729	139.467	41.4659	-34.1037	183.193	75.2701	-25.9273	182.48	76.542	-51.208	180.303	79.22	-68.6533	178.138	82.5045	20.0592	182.916	69.2377	45.3815	149.139	88.1516	43.2468	
378	3.15	119.197	60.8214	35.1514	98.6549	53.8512	3.29459	102.998	51.5528	-30.4696	118.064	45.5132	-46.5285	122.779	100.69	-26.7942	110.862	74.9876	-47.3392	112.198	52.5389	-20.9683	143.232	100.292	-37.5333	134.155	79.4268	-61.1663	127.476	46.7667	-41.374	163.774	89.1614	-33.7989	155.131	69.4598	-61.202	138.693	44.1966	-50.3431	184.982	74.0145	-28.7503	184.271	74.8946	-50.1706	186.706	73.5198	-73.7067	176.524	82.6621	18.8476	179.123	69.6074	49.7933	149.523	87.6783	37.8703	
379	3.15833	113.911	63.0013	31.5713	103.853	54.8921	1.22787	100.099	48.4544	-25.9848	113.562	42.7022	-47.1117	125.54	99.806	-29.7426	110.046	79.6938	-50.9171	111.587	50.81	-32.0988	148.318	100.551	-41.2427	135.212	85.3539	-65.2732	126.459	48.0036	-62.4158	164.003	91.2448	-36.3835	157.752	82.0849	-62.6594	146.044	51.9744	-69.044	188.712	69.8416	-27.88	188.332	72.1781	-52.2156	190.552	73.6631	-73.9894	180.171	81.3717	19.1666	183.126	70.9977	42.6496	149.615	84.258	39.0766	
380	3.16667	114.805	59.4031	37.3825	103.801	52.8916	2.19988	96.393	46.7305	-25.2649	111.256	40.1539	-48.9246	125.184	99.1746	-33.8418	109.284	81.8176	-53.5123	110.404	49.1079	-40.1296	146.856	98.7878	-39.0877	134.852	87.168	-67.7479	119.576	51.3201	-75.9486	166.67	90.7869	-37.5135	160.183	83.7427	-63.7503	143.536	63.1594	-78.7198	184.697	69.6404	-25.8252	188.621	68.8585	-53.393	190.317	67.7316	-71.1528	174.487	80.4916	18.5863	181.003	69.4141	42.5029	147.26	88.4854	36.8486	
381	3.175	116.732	59.2585	38.2606	102.784	52.6601	3.49953	95.1803	45.0148	-23.5247	110.864	39.1059	-49.4454	123.255	97.9732	-27.3702	109.821	79.7187	-54.307	102.348	49.7748	-44.2623	146.108	100.094	-36.4394	134.34	90.9943	-67.5614	121.345	64.4814	-82.7124	163.276	90.3275	-35.5782	160.665	85.7576	-63.2729	143.066	68.0668	-82.9981	183.711	68.0821	-28.8818	184.511	67.5511	-49.603	187.046	64.457	-71.8081	178.424	81.2331	17.9641	182.841	69.3735	44.477	147.869	87.071	39.419	
382	3.18333	114.546	61.5121	35.7644	100.766	52.9899	6.5965	95.1987	47.9577	-24.1863	109.674	40.2746	-45.2553	124.111	99.0099	-28.0173	110.256	85.1464	-54.8925	100.899	56.5165	-52.9519	148.12	102.802	-31.0362	137.831	103.496	-61.2071	127.796	81.2504	-88.5048	169.219	89.3632	-31.3106	163.105	90.8601	-62.416	150.768	75.462	-85.9901	183.939	65.824	-24.9721	184.622	64.7164	-51.1389	177.176	61.9388	-73.3999	179.509	77.2432	17.2799	184.422	65.4501	47.5826	147.97	85.9428	40.7199	
383	3.19167	119.625	59.7837	39.976	101.115	53.123	7.88897	96.4966	46.5334	-22.4216	103.028	38.022	-45.0268	125.943	101.711	-26.1401	114.603	90.4663	-56.2254	103.4	61.0926	-62.8941	152.605	105.626	-30.9841	144.073	111.884	-60.0321	132.933	94.8046	-92.5073	171.243	90.4503	-28.9594	166.118	94.8502	-61.0535	155.555	85.1465	-82.242	183.698	64.6762	-30.2284	181.528	60.2991	-54.1414	169.194	55.9548	-74.8091	176.959	77.3219	19.3749	184.422	63.8733	47.2559	152.68	83.5533	41.7183	
384	3.2	118.786	60.7297	39.9011	98.2546	53.2584	7.60782	95.4307	44.8209	-17.0448	103.057	37.1598	-42.3651	128.751	102.208	-24.3328	114.925	98.099	-52.3114	103.725	72.7314	-66.4954	154.552	106.282	-28.2435	148.55	115.006	-59.5009	138.043	108.013	-89.6101	170.277	87.0079	-24.8697	171.381	95.5241	-53.5214	156.685	86.9682	-81.6238	183.378	61.4452	-28.4124	175.711	57.0183	-52.5231	165.165	44.684	-74.0434	180.167	74.5864	17.1776	182.882	62.12	47.5976	152.696	84.9863	40.2171	
385	3.20833	118.461	62.5123	37.5545	101.423	53.0429	11.0376	93.6745	45.6774	-19.3925	101.877	34.9345	-40.7464	134.296	99.467	-24.2686	120.257	97.6169	-56.23	103.389	78.0217	-70.3756	162.129	102.943	-28.0242	158.218	114.042	-59.9886	143.561	111.755	-88.3773	172.521	85.9662	-25.6655	174.014	93.3052	-53.5808	164.972	82.7315	-81.955	184.251	57.6568	-28.2025	175.876	53.0773	-51.619	161.098	41.3202	-68.7082	181.351	72.4411	21.1636	184.528	61.9091	43.7733	152.695	84.7837	40.5119	
386	3.21667	120.235	62.2754	38.0363	99.0557	52.6481	9.5105	95.4826	44.7074	-18.8614	101.569	34.2231	-41.3547	132.8	100.985	-24.8592	117.811	100.609	-54.4743	103.076	83.5665	-70.3795	164.117	101.977	-29.6167	156.78	114.129	-54.511	144.09	109.916	-91.5966	175.485	83.8049	-29.3383	171.344	89.6582	-57.393	160.839	76.3949	-82.3345	180.177	55.7822	-24.9188	174.974	46.4944	-52.8676	155.67	32.9993	-65.5041	177.325	70.572	19.1514	183.267	62.6039	45.2982	152.957	80.9739	40.9607	
387	3.225	118.692	62.378	41.174	101.511	50.978	14.0249	92.4397	43.9956	-14.9608	96.8671	32.2269	-38.9513	134.832	99.2131	-25.1467	117.797	101.459	-55.6465	107.971	85.5539	-73.0607	159.319	100.073	-24.649	160.2	112.422	-58.0876	149.538	106.34	-90.9441	171.745	81.2422	-28.8275	168.064	84.5384	-59.3472	158.663	68.2238	-81.0536	178.984	53.93	-29.6191	169.996	41.5527	-53.1848	152.312	30.7629	-61.8735	177.381	71.6696	16.7659	182.815	61.3907	44.4129	157.09	82.1554	37.912	
388	3.23333	118.87	63.6945	39.5652	98.4496	53.5825	8.49768	89.0918	44.5725	-16.2949	94.6316	34.0282	-40.889	131.576	103.578	-25.194	121.283	105.236	-53.2709	108.828	90.8278	-73.4828	159.708	99.9169	-24.7126	158.876	112.634	-57.5887	148.737	104.579	-88.8088	172.65	79.3105	-34.0664	167.448	78.265	-59.306	149.614	60.6755	-77.9471	180.056	49.7824	-27.3029	164.705	40.997	-49.9357	143.797	20.3642	-56.1314	181.587	66.2358	19.9892	183.886	60.474	46.238	156.851	82.7013	37.113	
389	3.24167	115.766	63.9005	41.3676	99.9519	53.7033	11.9378	88.9469	46.552	-16.2417	98.3524	35.268	-41.8632	136.365	102.629	-25.2272	124.48	108.321	-53.4177	106.54	96.8888	-74.8059	161.352	102.133	-28.4243	159.717	109.312	-59.9465	148.546	100.119	-88.6676	168.825	77.3447	-35.9055	157.937	70.0771	-62.4299	144.576	44.5137	-71.3636	175.891	49.8645	-28.0659	161.438	40.1778	-48.4153	139.982	22.1026	-50.7024	181.974	68.2361	20.2998	185.9	59.3447	47.479	153.324	84.9129	36.6953	
390	3.25	117.329	63.4474	42.8603	98.7509	54.9233	9.92227	89.6463	47.0659	-17.2889	96.1863	36.6801	-40.4944	133.113	104.119	-20.7783	123.3	111.783	-48.3138	112.986	99.1915	-75.0339	164.401	95.431	-27.1356	160.829	105.836	-61.0925	145.037	95.5483	-89.021	166.914	73.833	-37.2162	154.039	61.5728	-61.7356	132.193	36.0563	-60.621	175.521	51.281	-27.2867	164.697	38.9141	-48.4022	143.546	22.4489	-53.7627	181.574	71.7087	16.4522	184.899	58.5126	46.5412	154.444	80.7215	40.2737	
391	3.25833	119.977	62.2213	42.2308	98.8632	55.4095	14.0125	88.0297	47.8937	-14.4333	94.3551	37.8739	-40.2632	136.858	102.028	-21.5654	124.623	112.855	-50.4272	114.406	104.652	-76.3611	160.395	97.1497	-27.3967	156.221	103.928	-61.9712	143.912	87.7396	-89.4396	166.587	69.4174	-32.9101	155.531	54.8734	-58.9315	132.885	29.06	-52.1941	180.102	49.286	-30.7125	167.719	37.7605	-49.3551	148.721	23.2278	-59.1924	180.25	72.9797	18.6744	181.632	62.2982	45.2629	153.645	84.0139	41.3893	
392	3.26667	118.079	63.61	40.5398	100.439	56.1497	12.1708	91.3511	50.4865	-16.9838	91.6973	38.8063	-39.8237	132.679	105.085	-22.3262	125.237	112.731	-47.7397	113.063	108.704	-74.3496	161.185	93.8553	-32.2661	153.056	96.2783	-64.5364	134.155	80.5748	-92.6151	166.996	66.1426	-38.4751	149.092	49.1994	-57.7476	134.016	23.9937	-49.0009	182.688	49.7657	-27.7518	174.621	43.3294	-47.2271	161.584	26.2305	-65.6637	183.198	71.6059	16.8738	186.853	62.2574	46.764	156.176	80.182	40.2956	
393	3.275	117.638	64.3386	40.1276	96.2897	55.5405	15.3174	89.3768	50.846	-12.6369	92.6308	42.3191	-40.5205	134.668	103.64	-24.9492	124.815	112.571	-49.6822	113.782	112.443	-73.4784	152.659	94.5804	-33.44	147.857	92.2697	-66.4211	130.523	75.0084	-89.8304	161.946	65.1338	-38.7922	146.448	44.6678	-56.0509	134.017	20.3874	-49.1448	181.397	54.1064	-28.9824	177.697	48.8866	-46.4369	170.741	40.3589	-67.5946	178.46	73.4012	20.7056	185.758	63.8707	45.7733	155.386	82.0909	39.7494	
394	3.28333	120.227	61.2197	44.2551	98.3388	56.2549	16.5028	85.615	52.3679	-12.2068	88.2639	43.3909	-34.8131	130.574	103.529	-18.6144	122.156	112.739	-49.6379	113.597	112.38	-74.9983	151.926	91.9723	-38.1596	140.295	87.9247	-66.0203	123.987	64.0419	-89.0776	159.076	67.1485	-33.479	147.862	47.8019	-55.4913	128.485	22.8581	-50.8852	182.018	54.6276	-26.4218	182.079	50.2053	-50.3321	180.18	47.6386	-70.9237	177.729	74.9725	18.8067	184.239	63.8894	44.8235	151.436	83.2313	37.3763	
395	3.29167	115.817	62.9084	44.9268	97.117	58.4942	18.3937	84.9181	54.8785	-11.3479	85.52	46.7138	-33.1833	128.569	104.92	-21.9091	123.382	113.276	-46.4484	114.362	114.613	-71.1613	146.746	91.6043	-38.2158	134.681	84.7149	-63.9518	114.677	54.558	-83.0227	160.566	64.2116	-38.0003	144.168	49.0303	-54.5684	128.73	17.9029	-50.5749	184.71	56.7941	-29.2937	183.692	53.6978	-51.1033	181.238	55.808	-69.1006	180.279	72.4769	17.6475	181.925	63.0203	49.9083	151.193	85.1512	40.4625	
396	3.3	120.408	61.5321	46.7387	95.2688	60.2383	18.5779	84.6425	58.8883	-10.1892	84.7265	51.3007	-31.8286	128.012	104.142	-22.4072	117.546	114.028	-47.0835	110.699	115.135	-72.0756	145.838	89.2293	-35.9973	130.202	79.5177	-61.7001	114.808	44.2039	-72.3392	160.74	66.3774	-33.9781	142.365	49.4715	-54.389	129.049	17.8388	-48.4419	179.698	60.4436	-23.507	183.529	59.2733	-46.2409	184.889	61.1843	-68.6361	176.573	74.7175	17.7456	181.887	64.2688	45.9524	148.08	84.0123	39.4727	
397	3.30833	116.963	64.1816	43.5216	98.1807	61.5787	19.707	82.3371	59.1721	-4.25195	84.937	54.2455	-31.007	124.861	104.795	-21.288	118.738	110.861	-46.0467	104.572	114.802	-71.9808	143.016	86.145	-38.3547	128.617	71.4719	-60.4282	115.624	32.8938	-59.3341	157.894	68.3432	-33.8802	143.652	46.9201	-53.2417	129.805	20.0202	-44.0813	181.071	64.2921	-25.5239	183.789	63.0382	-46.9368	187.653	68.4798	-68.2105	179.455	77.3022	18.2042	183.63	64.4559	49.4489	150.457	84.0014	37.6719	
398	3.31667	116.187	63.3642	46.3333	92.3129	62.1803	23.2461	82.9339	61.9228	-4.60352	78.67	56.843	-29.1544	122.819	102.401	-22.3602	113.243	109.555	-48.4278	106.824	108.11	-73.6003	140.08	81.6241	-38.5782	126.006	61.2515	-57.0181	116.096	23.842	-38.4519	152.236	68.7379	-36.1916	143.798	43.3537	-51.6809	127.327	19.0471	-32.1867	180.142	66.1203	-25.4443	179.448	69.7719	-47.8744	184.553	74.2408	-68.8277	175.412	75.8428	20.9185	180.473	66.5607	49.3792	147.295	86.2383	39.7679	
399	3.325	115.36	63.0756	46.6276	93.2908	62.7194	22.9629	79.4546	62.7519	-1.72127	77.4124	59.5827	-31.6879	120.674	101.096	-19.8875	113.961	104.38	-48.102	103.342	104.481	-73.8793	137.462	79.2945	-36.4738	120.887	52.6291	-50.4577	120.725	21.7438	-25.0713	154.521	66.4901	-36.7684	140.4	43.6526	-47.0528	133.777	17.5235	-23.2673	182.048	66.7618	-24.5259	180.266	71.7668	-45.2013	186.295	75.2627	-65.0172	174.683	79.6848	16.3799	180.875	67.1773	47.4416	144.854	85.3506	40.5613	
